<mxfile host="app.diagrams.net" modified="2021-09-06T15:03:23.865Z" agent="5.0 (X11; Linux x86_64) AppleWebKit/537.36 (KHTML, like Gecko) Chrome/92.0.4515.131 Safari/537.36" etag="3g7WUhnex9cXS91RjtC-" version="15.0.6" type="github">
  <diagram id="Jm7Weq7HoMdDrPd_gKgZ" name="Page-1">
    <mxGraphModel dx="1902" dy="1052" grid="1" gridSize="10" guides="1" tooltips="1" connect="1" arrows="1" fold="1" page="1" pageScale="1" pageWidth="827" pageHeight="1169" math="0" shadow="0">
      <root>
        <mxCell id="0" />
        <mxCell id="1" parent="0" />
        <mxCell id="jP5sKusEUZS4UX5iM_x4-1" value="Category" style="shape=table;startSize=30;container=1;collapsible=1;childLayout=tableLayout;fixedRows=1;rowLines=0;fontStyle=1;align=center;resizeLast=1;" vertex="1" parent="1">
          <mxGeometry x="130" y="110" width="180" height="130" as="geometry" />
        </mxCell>
        <mxCell id="jP5sKusEUZS4UX5iM_x4-2" value="" style="shape=partialRectangle;collapsible=0;dropTarget=0;pointerEvents=0;fillColor=none;top=0;left=0;bottom=1;right=0;points=[[0,0.5],[1,0.5]];portConstraint=eastwest;" vertex="1" parent="jP5sKusEUZS4UX5iM_x4-1">
          <mxGeometry y="30" width="180" height="30" as="geometry" />
        </mxCell>
        <mxCell id="jP5sKusEUZS4UX5iM_x4-3" value="PK" style="shape=partialRectangle;connectable=0;fillColor=none;top=0;left=0;bottom=0;right=0;fontStyle=1;overflow=hidden;" vertex="1" parent="jP5sKusEUZS4UX5iM_x4-2">
          <mxGeometry width="30" height="30" as="geometry" />
        </mxCell>
        <mxCell id="jP5sKusEUZS4UX5iM_x4-4" value="CategoryID" style="shape=partialRectangle;connectable=0;fillColor=none;top=0;left=0;bottom=0;right=0;align=left;spacingLeft=6;fontStyle=5;overflow=hidden;" vertex="1" parent="jP5sKusEUZS4UX5iM_x4-2">
          <mxGeometry x="30" width="150" height="30" as="geometry" />
        </mxCell>
        <mxCell id="jP5sKusEUZS4UX5iM_x4-5" value="" style="shape=partialRectangle;collapsible=0;dropTarget=0;pointerEvents=0;fillColor=none;top=0;left=0;bottom=0;right=0;points=[[0,0.5],[1,0.5]];portConstraint=eastwest;" vertex="1" parent="jP5sKusEUZS4UX5iM_x4-1">
          <mxGeometry y="60" width="180" height="30" as="geometry" />
        </mxCell>
        <mxCell id="jP5sKusEUZS4UX5iM_x4-6" value="" style="shape=partialRectangle;connectable=0;fillColor=none;top=0;left=0;bottom=0;right=0;editable=1;overflow=hidden;" vertex="1" parent="jP5sKusEUZS4UX5iM_x4-5">
          <mxGeometry width="30" height="30" as="geometry" />
        </mxCell>
        <mxCell id="jP5sKusEUZS4UX5iM_x4-7" value="Category" style="shape=partialRectangle;connectable=0;fillColor=none;top=0;left=0;bottom=0;right=0;align=left;spacingLeft=6;overflow=hidden;" vertex="1" parent="jP5sKusEUZS4UX5iM_x4-5">
          <mxGeometry x="30" width="150" height="30" as="geometry" />
        </mxCell>
        <mxCell id="jP5sKusEUZS4UX5iM_x4-53" value="" style="shape=partialRectangle;collapsible=0;dropTarget=0;pointerEvents=0;fillColor=none;top=0;left=0;bottom=0;right=0;points=[[0,0.5],[1,0.5]];portConstraint=eastwest;" vertex="1" parent="jP5sKusEUZS4UX5iM_x4-1">
          <mxGeometry y="90" width="180" height="30" as="geometry" />
        </mxCell>
        <mxCell id="jP5sKusEUZS4UX5iM_x4-54" value="" style="shape=partialRectangle;connectable=0;fillColor=none;top=0;left=0;bottom=0;right=0;editable=1;overflow=hidden;" vertex="1" parent="jP5sKusEUZS4UX5iM_x4-53">
          <mxGeometry width="30" height="30" as="geometry" />
        </mxCell>
        <mxCell id="jP5sKusEUZS4UX5iM_x4-55" value="timestamp()" style="shape=partialRectangle;connectable=0;fillColor=none;top=0;left=0;bottom=0;right=0;align=left;spacingLeft=6;overflow=hidden;" vertex="1" parent="jP5sKusEUZS4UX5iM_x4-53">
          <mxGeometry x="30" width="150" height="30" as="geometry" />
        </mxCell>
        <mxCell id="jP5sKusEUZS4UX5iM_x4-14" value="Type" style="shape=table;startSize=30;container=1;collapsible=1;childLayout=tableLayout;fixedRows=1;rowLines=0;fontStyle=1;align=center;resizeLast=1;" vertex="1" parent="1">
          <mxGeometry x="230" y="290" width="180" height="190" as="geometry" />
        </mxCell>
        <mxCell id="jP5sKusEUZS4UX5iM_x4-15" value="" style="shape=partialRectangle;collapsible=0;dropTarget=0;pointerEvents=0;fillColor=none;top=0;left=0;bottom=1;right=0;points=[[0,0.5],[1,0.5]];portConstraint=eastwest;" vertex="1" parent="jP5sKusEUZS4UX5iM_x4-14">
          <mxGeometry y="30" width="180" height="30" as="geometry" />
        </mxCell>
        <mxCell id="jP5sKusEUZS4UX5iM_x4-16" value="PK" style="shape=partialRectangle;connectable=0;fillColor=none;top=0;left=0;bottom=0;right=0;fontStyle=1;overflow=hidden;" vertex="1" parent="jP5sKusEUZS4UX5iM_x4-15">
          <mxGeometry width="30" height="30" as="geometry" />
        </mxCell>
        <mxCell id="jP5sKusEUZS4UX5iM_x4-17" value="TypeID" style="shape=partialRectangle;connectable=0;fillColor=none;top=0;left=0;bottom=0;right=0;align=left;spacingLeft=6;fontStyle=5;overflow=hidden;" vertex="1" parent="jP5sKusEUZS4UX5iM_x4-15">
          <mxGeometry x="30" width="150" height="30" as="geometry" />
        </mxCell>
        <mxCell id="jP5sKusEUZS4UX5iM_x4-18" value="" style="shape=partialRectangle;collapsible=0;dropTarget=0;pointerEvents=0;fillColor=none;top=0;left=0;bottom=0;right=0;points=[[0,0.5],[1,0.5]];portConstraint=eastwest;" vertex="1" parent="jP5sKusEUZS4UX5iM_x4-14">
          <mxGeometry y="60" width="180" height="30" as="geometry" />
        </mxCell>
        <mxCell id="jP5sKusEUZS4UX5iM_x4-19" value="FK" style="shape=partialRectangle;connectable=0;fillColor=none;top=0;left=0;bottom=0;right=0;editable=1;overflow=hidden;" vertex="1" parent="jP5sKusEUZS4UX5iM_x4-18">
          <mxGeometry width="30" height="30" as="geometry" />
        </mxCell>
        <mxCell id="jP5sKusEUZS4UX5iM_x4-20" value="CategoryID" style="shape=partialRectangle;connectable=0;fillColor=none;top=0;left=0;bottom=0;right=0;align=left;spacingLeft=6;overflow=hidden;" vertex="1" parent="jP5sKusEUZS4UX5iM_x4-18">
          <mxGeometry x="30" width="150" height="30" as="geometry" />
        </mxCell>
        <mxCell id="jP5sKusEUZS4UX5iM_x4-62" value="" style="shape=partialRectangle;collapsible=0;dropTarget=0;pointerEvents=0;fillColor=none;top=0;left=0;bottom=0;right=0;points=[[0,0.5],[1,0.5]];portConstraint=eastwest;" vertex="1" parent="jP5sKusEUZS4UX5iM_x4-14">
          <mxGeometry y="90" width="180" height="30" as="geometry" />
        </mxCell>
        <mxCell id="jP5sKusEUZS4UX5iM_x4-63" value="FK" style="shape=partialRectangle;connectable=0;fillColor=none;top=0;left=0;bottom=0;right=0;editable=1;overflow=hidden;" vertex="1" parent="jP5sKusEUZS4UX5iM_x4-62">
          <mxGeometry width="30" height="30" as="geometry" />
        </mxCell>
        <mxCell id="jP5sKusEUZS4UX5iM_x4-64" value="DepreciationID" style="shape=partialRectangle;connectable=0;fillColor=none;top=0;left=0;bottom=0;right=0;align=left;spacingLeft=6;overflow=hidden;" vertex="1" parent="jP5sKusEUZS4UX5iM_x4-62">
          <mxGeometry x="30" width="150" height="30" as="geometry" />
        </mxCell>
        <mxCell id="jP5sKusEUZS4UX5iM_x4-21" value="" style="shape=partialRectangle;collapsible=0;dropTarget=0;pointerEvents=0;fillColor=none;top=0;left=0;bottom=0;right=0;points=[[0,0.5],[1,0.5]];portConstraint=eastwest;" vertex="1" parent="jP5sKusEUZS4UX5iM_x4-14">
          <mxGeometry y="120" width="180" height="30" as="geometry" />
        </mxCell>
        <mxCell id="jP5sKusEUZS4UX5iM_x4-22" value="" style="shape=partialRectangle;connectable=0;fillColor=none;top=0;left=0;bottom=0;right=0;editable=1;overflow=hidden;" vertex="1" parent="jP5sKusEUZS4UX5iM_x4-21">
          <mxGeometry width="30" height="30" as="geometry" />
        </mxCell>
        <mxCell id="jP5sKusEUZS4UX5iM_x4-23" value="Type" style="shape=partialRectangle;connectable=0;fillColor=none;top=0;left=0;bottom=0;right=0;align=left;spacingLeft=6;overflow=hidden;" vertex="1" parent="jP5sKusEUZS4UX5iM_x4-21">
          <mxGeometry x="30" width="150" height="30" as="geometry" />
        </mxCell>
        <mxCell id="jP5sKusEUZS4UX5iM_x4-24" value="" style="shape=partialRectangle;collapsible=0;dropTarget=0;pointerEvents=0;fillColor=none;top=0;left=0;bottom=0;right=0;points=[[0,0.5],[1,0.5]];portConstraint=eastwest;" vertex="1" parent="jP5sKusEUZS4UX5iM_x4-14">
          <mxGeometry y="150" width="180" height="30" as="geometry" />
        </mxCell>
        <mxCell id="jP5sKusEUZS4UX5iM_x4-25" value="" style="shape=partialRectangle;connectable=0;fillColor=none;top=0;left=0;bottom=0;right=0;editable=1;overflow=hidden;" vertex="1" parent="jP5sKusEUZS4UX5iM_x4-24">
          <mxGeometry width="30" height="30" as="geometry" />
        </mxCell>
        <mxCell id="jP5sKusEUZS4UX5iM_x4-26" value="timestamp()" style="shape=partialRectangle;connectable=0;fillColor=none;top=0;left=0;bottom=0;right=0;align=left;spacingLeft=6;overflow=hidden;" vertex="1" parent="jP5sKusEUZS4UX5iM_x4-24">
          <mxGeometry x="30" width="150" height="30" as="geometry" />
        </mxCell>
        <mxCell id="jP5sKusEUZS4UX5iM_x4-27" value="Depreciation" style="shape=table;startSize=30;container=1;collapsible=1;childLayout=tableLayout;fixedRows=1;rowLines=0;fontStyle=1;align=center;resizeLast=1;" vertex="1" parent="1">
          <mxGeometry x="510" y="65" width="230" height="220" as="geometry" />
        </mxCell>
        <mxCell id="jP5sKusEUZS4UX5iM_x4-28" value="" style="shape=partialRectangle;collapsible=0;dropTarget=0;pointerEvents=0;fillColor=none;top=0;left=0;bottom=1;right=0;points=[[0,0.5],[1,0.5]];portConstraint=eastwest;" vertex="1" parent="jP5sKusEUZS4UX5iM_x4-27">
          <mxGeometry y="30" width="230" height="30" as="geometry" />
        </mxCell>
        <mxCell id="jP5sKusEUZS4UX5iM_x4-29" value="PK" style="shape=partialRectangle;connectable=0;fillColor=none;top=0;left=0;bottom=0;right=0;fontStyle=1;overflow=hidden;" vertex="1" parent="jP5sKusEUZS4UX5iM_x4-28">
          <mxGeometry width="30" height="30" as="geometry" />
        </mxCell>
        <mxCell id="jP5sKusEUZS4UX5iM_x4-30" value="DepreciationID" style="shape=partialRectangle;connectable=0;fillColor=none;top=0;left=0;bottom=0;right=0;align=left;spacingLeft=6;fontStyle=5;overflow=hidden;" vertex="1" parent="jP5sKusEUZS4UX5iM_x4-28">
          <mxGeometry x="30" width="200" height="30" as="geometry" />
        </mxCell>
        <mxCell id="jP5sKusEUZS4UX5iM_x4-31" value="" style="shape=partialRectangle;collapsible=0;dropTarget=0;pointerEvents=0;fillColor=none;top=0;left=0;bottom=0;right=0;points=[[0,0.5],[1,0.5]];portConstraint=eastwest;" vertex="1" parent="jP5sKusEUZS4UX5iM_x4-27">
          <mxGeometry y="60" width="230" height="30" as="geometry" />
        </mxCell>
        <mxCell id="jP5sKusEUZS4UX5iM_x4-32" value="" style="shape=partialRectangle;connectable=0;fillColor=none;top=0;left=0;bottom=0;right=0;editable=1;overflow=hidden;" vertex="1" parent="jP5sKusEUZS4UX5iM_x4-31">
          <mxGeometry width="30" height="30" as="geometry" />
        </mxCell>
        <mxCell id="jP5sKusEUZS4UX5iM_x4-33" value="DepreciationNumber" style="shape=partialRectangle;connectable=0;fillColor=none;top=0;left=0;bottom=0;right=0;align=left;spacingLeft=6;overflow=hidden;" vertex="1" parent="jP5sKusEUZS4UX5iM_x4-31">
          <mxGeometry x="30" width="200" height="30" as="geometry" />
        </mxCell>
        <mxCell id="jP5sKusEUZS4UX5iM_x4-34" value="" style="shape=partialRectangle;collapsible=0;dropTarget=0;pointerEvents=0;fillColor=none;top=0;left=0;bottom=0;right=0;points=[[0,0.5],[1,0.5]];portConstraint=eastwest;" vertex="1" parent="jP5sKusEUZS4UX5iM_x4-27">
          <mxGeometry y="90" width="230" height="30" as="geometry" />
        </mxCell>
        <mxCell id="jP5sKusEUZS4UX5iM_x4-35" value="" style="shape=partialRectangle;connectable=0;fillColor=none;top=0;left=0;bottom=0;right=0;editable=1;overflow=hidden;" vertex="1" parent="jP5sKusEUZS4UX5iM_x4-34">
          <mxGeometry width="30" height="30" as="geometry" />
        </mxCell>
        <mxCell id="jP5sKusEUZS4UX5iM_x4-36" value="DeprecationAccumulationNumber" style="shape=partialRectangle;connectable=0;fillColor=none;top=0;left=0;bottom=0;right=0;align=left;spacingLeft=6;overflow=hidden;" vertex="1" parent="jP5sKusEUZS4UX5iM_x4-34">
          <mxGeometry x="30" width="200" height="30" as="geometry" />
        </mxCell>
        <mxCell id="jP5sKusEUZS4UX5iM_x4-37" value="" style="shape=partialRectangle;collapsible=0;dropTarget=0;pointerEvents=0;fillColor=none;top=0;left=0;bottom=0;right=0;points=[[0,0.5],[1,0.5]];portConstraint=eastwest;" vertex="1" parent="jP5sKusEUZS4UX5iM_x4-27">
          <mxGeometry y="120" width="230" height="30" as="geometry" />
        </mxCell>
        <mxCell id="jP5sKusEUZS4UX5iM_x4-38" value="" style="shape=partialRectangle;connectable=0;fillColor=none;top=0;left=0;bottom=0;right=0;editable=1;overflow=hidden;" vertex="1" parent="jP5sKusEUZS4UX5iM_x4-37">
          <mxGeometry width="30" height="30" as="geometry" />
        </mxCell>
        <mxCell id="jP5sKusEUZS4UX5iM_x4-39" value="InternalDepreciationTerm" style="shape=partialRectangle;connectable=0;fillColor=none;top=0;left=0;bottom=0;right=0;align=left;spacingLeft=6;overflow=hidden;" vertex="1" parent="jP5sKusEUZS4UX5iM_x4-37">
          <mxGeometry x="30" width="200" height="30" as="geometry" />
        </mxCell>
        <mxCell id="jP5sKusEUZS4UX5iM_x4-56" value="" style="shape=partialRectangle;collapsible=0;dropTarget=0;pointerEvents=0;fillColor=none;top=0;left=0;bottom=0;right=0;points=[[0,0.5],[1,0.5]];portConstraint=eastwest;" vertex="1" parent="jP5sKusEUZS4UX5iM_x4-27">
          <mxGeometry y="150" width="230" height="30" as="geometry" />
        </mxCell>
        <mxCell id="jP5sKusEUZS4UX5iM_x4-57" value="" style="shape=partialRectangle;connectable=0;fillColor=none;top=0;left=0;bottom=0;right=0;editable=1;overflow=hidden;" vertex="1" parent="jP5sKusEUZS4UX5iM_x4-56">
          <mxGeometry width="30" height="30" as="geometry" />
        </mxCell>
        <mxCell id="jP5sKusEUZS4UX5iM_x4-58" value="ExternalDepreciationTerm" style="shape=partialRectangle;connectable=0;fillColor=none;top=0;left=0;bottom=0;right=0;align=left;spacingLeft=6;overflow=hidden;" vertex="1" parent="jP5sKusEUZS4UX5iM_x4-56">
          <mxGeometry x="30" width="200" height="30" as="geometry" />
        </mxCell>
        <mxCell id="jP5sKusEUZS4UX5iM_x4-59" value="" style="shape=partialRectangle;collapsible=0;dropTarget=0;pointerEvents=0;fillColor=none;top=0;left=0;bottom=0;right=0;points=[[0,0.5],[1,0.5]];portConstraint=eastwest;" vertex="1" parent="jP5sKusEUZS4UX5iM_x4-27">
          <mxGeometry y="180" width="230" height="30" as="geometry" />
        </mxCell>
        <mxCell id="jP5sKusEUZS4UX5iM_x4-60" value="" style="shape=partialRectangle;connectable=0;fillColor=none;top=0;left=0;bottom=0;right=0;editable=1;overflow=hidden;" vertex="1" parent="jP5sKusEUZS4UX5iM_x4-59">
          <mxGeometry width="30" height="30" as="geometry" />
        </mxCell>
        <mxCell id="jP5sKusEUZS4UX5iM_x4-61" value="timestamp()" style="shape=partialRectangle;connectable=0;fillColor=none;top=0;left=0;bottom=0;right=0;align=left;spacingLeft=6;overflow=hidden;" vertex="1" parent="jP5sKusEUZS4UX5iM_x4-59">
          <mxGeometry x="30" width="200" height="30" as="geometry" />
        </mxCell>
        <mxCell id="jP5sKusEUZS4UX5iM_x4-65" value="Brand" style="shape=table;startSize=30;container=1;collapsible=1;childLayout=tableLayout;fixedRows=1;rowLines=0;fontStyle=1;align=center;resizeLast=1;" vertex="1" parent="1">
          <mxGeometry x="460" y="430" width="180" height="160" as="geometry" />
        </mxCell>
        <mxCell id="jP5sKusEUZS4UX5iM_x4-66" value="" style="shape=partialRectangle;collapsible=0;dropTarget=0;pointerEvents=0;fillColor=none;top=0;left=0;bottom=1;right=0;points=[[0,0.5],[1,0.5]];portConstraint=eastwest;" vertex="1" parent="jP5sKusEUZS4UX5iM_x4-65">
          <mxGeometry y="30" width="180" height="30" as="geometry" />
        </mxCell>
        <mxCell id="jP5sKusEUZS4UX5iM_x4-67" value="PK" style="shape=partialRectangle;connectable=0;fillColor=none;top=0;left=0;bottom=0;right=0;fontStyle=1;overflow=hidden;" vertex="1" parent="jP5sKusEUZS4UX5iM_x4-66">
          <mxGeometry width="30" height="30" as="geometry" />
        </mxCell>
        <mxCell id="jP5sKusEUZS4UX5iM_x4-68" value="BrandID" style="shape=partialRectangle;connectable=0;fillColor=none;top=0;left=0;bottom=0;right=0;align=left;spacingLeft=6;fontStyle=5;overflow=hidden;" vertex="1" parent="jP5sKusEUZS4UX5iM_x4-66">
          <mxGeometry x="30" width="150" height="30" as="geometry" />
        </mxCell>
        <mxCell id="jP5sKusEUZS4UX5iM_x4-69" value="" style="shape=partialRectangle;collapsible=0;dropTarget=0;pointerEvents=0;fillColor=none;top=0;left=0;bottom=0;right=0;points=[[0,0.5],[1,0.5]];portConstraint=eastwest;" vertex="1" parent="jP5sKusEUZS4UX5iM_x4-65">
          <mxGeometry y="60" width="180" height="30" as="geometry" />
        </mxCell>
        <mxCell id="jP5sKusEUZS4UX5iM_x4-70" value="FK" style="shape=partialRectangle;connectable=0;fillColor=none;top=0;left=0;bottom=0;right=0;editable=1;overflow=hidden;" vertex="1" parent="jP5sKusEUZS4UX5iM_x4-69">
          <mxGeometry width="30" height="30" as="geometry" />
        </mxCell>
        <mxCell id="jP5sKusEUZS4UX5iM_x4-71" value="TypeID" style="shape=partialRectangle;connectable=0;fillColor=none;top=0;left=0;bottom=0;right=0;align=left;spacingLeft=6;overflow=hidden;" vertex="1" parent="jP5sKusEUZS4UX5iM_x4-69">
          <mxGeometry x="30" width="150" height="30" as="geometry" />
        </mxCell>
        <mxCell id="jP5sKusEUZS4UX5iM_x4-72" value="" style="shape=partialRectangle;collapsible=0;dropTarget=0;pointerEvents=0;fillColor=none;top=0;left=0;bottom=0;right=0;points=[[0,0.5],[1,0.5]];portConstraint=eastwest;" vertex="1" parent="jP5sKusEUZS4UX5iM_x4-65">
          <mxGeometry y="90" width="180" height="30" as="geometry" />
        </mxCell>
        <mxCell id="jP5sKusEUZS4UX5iM_x4-73" value="" style="shape=partialRectangle;connectable=0;fillColor=none;top=0;left=0;bottom=0;right=0;editable=1;overflow=hidden;" vertex="1" parent="jP5sKusEUZS4UX5iM_x4-72">
          <mxGeometry width="30" height="30" as="geometry" />
        </mxCell>
        <mxCell id="jP5sKusEUZS4UX5iM_x4-74" value="Brand" style="shape=partialRectangle;connectable=0;fillColor=none;top=0;left=0;bottom=0;right=0;align=left;spacingLeft=6;overflow=hidden;" vertex="1" parent="jP5sKusEUZS4UX5iM_x4-72">
          <mxGeometry x="30" width="150" height="30" as="geometry" />
        </mxCell>
        <mxCell id="jP5sKusEUZS4UX5iM_x4-75" value="" style="shape=partialRectangle;collapsible=0;dropTarget=0;pointerEvents=0;fillColor=none;top=0;left=0;bottom=0;right=0;points=[[0,0.5],[1,0.5]];portConstraint=eastwest;" vertex="1" parent="jP5sKusEUZS4UX5iM_x4-65">
          <mxGeometry y="120" width="180" height="30" as="geometry" />
        </mxCell>
        <mxCell id="jP5sKusEUZS4UX5iM_x4-76" value="" style="shape=partialRectangle;connectable=0;fillColor=none;top=0;left=0;bottom=0;right=0;editable=1;overflow=hidden;" vertex="1" parent="jP5sKusEUZS4UX5iM_x4-75">
          <mxGeometry width="30" height="30" as="geometry" />
        </mxCell>
        <mxCell id="jP5sKusEUZS4UX5iM_x4-77" value="timestamp()" style="shape=partialRectangle;connectable=0;fillColor=none;top=0;left=0;bottom=0;right=0;align=left;spacingLeft=6;overflow=hidden;" vertex="1" parent="jP5sKusEUZS4UX5iM_x4-75">
          <mxGeometry x="30" width="150" height="30" as="geometry" />
        </mxCell>
        <mxCell id="jP5sKusEUZS4UX5iM_x4-78" value="Supplier" style="shape=table;startSize=30;container=1;collapsible=1;childLayout=tableLayout;fixedRows=1;rowLines=0;fontStyle=1;align=center;resizeLast=1;" vertex="1" parent="1">
          <mxGeometry x="30" y="640" width="180" height="430" as="geometry" />
        </mxCell>
        <mxCell id="jP5sKusEUZS4UX5iM_x4-79" value="" style="shape=partialRectangle;collapsible=0;dropTarget=0;pointerEvents=0;fillColor=none;top=0;left=0;bottom=1;right=0;points=[[0,0.5],[1,0.5]];portConstraint=eastwest;" vertex="1" parent="jP5sKusEUZS4UX5iM_x4-78">
          <mxGeometry y="30" width="180" height="30" as="geometry" />
        </mxCell>
        <mxCell id="jP5sKusEUZS4UX5iM_x4-80" value="PK" style="shape=partialRectangle;connectable=0;fillColor=none;top=0;left=0;bottom=0;right=0;fontStyle=1;overflow=hidden;" vertex="1" parent="jP5sKusEUZS4UX5iM_x4-79">
          <mxGeometry width="30" height="30" as="geometry" />
        </mxCell>
        <mxCell id="jP5sKusEUZS4UX5iM_x4-81" value="SupplierID" style="shape=partialRectangle;connectable=0;fillColor=none;top=0;left=0;bottom=0;right=0;align=left;spacingLeft=6;fontStyle=5;overflow=hidden;" vertex="1" parent="jP5sKusEUZS4UX5iM_x4-79">
          <mxGeometry x="30" width="150" height="30" as="geometry" />
        </mxCell>
        <mxCell id="jP5sKusEUZS4UX5iM_x4-82" value="" style="shape=partialRectangle;collapsible=0;dropTarget=0;pointerEvents=0;fillColor=none;top=0;left=0;bottom=0;right=0;points=[[0,0.5],[1,0.5]];portConstraint=eastwest;" vertex="1" parent="jP5sKusEUZS4UX5iM_x4-78">
          <mxGeometry y="60" width="180" height="30" as="geometry" />
        </mxCell>
        <mxCell id="jP5sKusEUZS4UX5iM_x4-83" value="" style="shape=partialRectangle;connectable=0;fillColor=none;top=0;left=0;bottom=0;right=0;editable=1;overflow=hidden;" vertex="1" parent="jP5sKusEUZS4UX5iM_x4-82">
          <mxGeometry width="30" height="30" as="geometry" />
        </mxCell>
        <mxCell id="jP5sKusEUZS4UX5iM_x4-84" value="Supplier" style="shape=partialRectangle;connectable=0;fillColor=none;top=0;left=0;bottom=0;right=0;align=left;spacingLeft=6;overflow=hidden;" vertex="1" parent="jP5sKusEUZS4UX5iM_x4-82">
          <mxGeometry x="30" width="150" height="30" as="geometry" />
        </mxCell>
        <mxCell id="jP5sKusEUZS4UX5iM_x4-85" value="" style="shape=partialRectangle;collapsible=0;dropTarget=0;pointerEvents=0;fillColor=none;top=0;left=0;bottom=0;right=0;points=[[0,0.5],[1,0.5]];portConstraint=eastwest;" vertex="1" parent="jP5sKusEUZS4UX5iM_x4-78">
          <mxGeometry y="90" width="180" height="30" as="geometry" />
        </mxCell>
        <mxCell id="jP5sKusEUZS4UX5iM_x4-86" value="" style="shape=partialRectangle;connectable=0;fillColor=none;top=0;left=0;bottom=0;right=0;editable=1;overflow=hidden;" vertex="1" parent="jP5sKusEUZS4UX5iM_x4-85">
          <mxGeometry width="30" height="30" as="geometry" />
        </mxCell>
        <mxCell id="jP5sKusEUZS4UX5iM_x4-87" value="Address" style="shape=partialRectangle;connectable=0;fillColor=none;top=0;left=0;bottom=0;right=0;align=left;spacingLeft=6;overflow=hidden;" vertex="1" parent="jP5sKusEUZS4UX5iM_x4-85">
          <mxGeometry x="30" width="150" height="30" as="geometry" />
        </mxCell>
        <mxCell id="jP5sKusEUZS4UX5iM_x4-88" value="" style="shape=partialRectangle;collapsible=0;dropTarget=0;pointerEvents=0;fillColor=none;top=0;left=0;bottom=0;right=0;points=[[0,0.5],[1,0.5]];portConstraint=eastwest;" vertex="1" parent="jP5sKusEUZS4UX5iM_x4-78">
          <mxGeometry y="120" width="180" height="30" as="geometry" />
        </mxCell>
        <mxCell id="jP5sKusEUZS4UX5iM_x4-89" value="" style="shape=partialRectangle;connectable=0;fillColor=none;top=0;left=0;bottom=0;right=0;editable=1;overflow=hidden;" vertex="1" parent="jP5sKusEUZS4UX5iM_x4-88">
          <mxGeometry width="30" height="30" as="geometry" />
        </mxCell>
        <mxCell id="jP5sKusEUZS4UX5iM_x4-90" value="City" style="shape=partialRectangle;connectable=0;fillColor=none;top=0;left=0;bottom=0;right=0;align=left;spacingLeft=6;overflow=hidden;" vertex="1" parent="jP5sKusEUZS4UX5iM_x4-88">
          <mxGeometry x="30" width="150" height="30" as="geometry" />
        </mxCell>
        <mxCell id="jP5sKusEUZS4UX5iM_x4-146" value="" style="shape=partialRectangle;collapsible=0;dropTarget=0;pointerEvents=0;fillColor=none;top=0;left=0;bottom=0;right=0;points=[[0,0.5],[1,0.5]];portConstraint=eastwest;" vertex="1" parent="jP5sKusEUZS4UX5iM_x4-78">
          <mxGeometry y="150" width="180" height="30" as="geometry" />
        </mxCell>
        <mxCell id="jP5sKusEUZS4UX5iM_x4-147" value="" style="shape=partialRectangle;connectable=0;fillColor=none;top=0;left=0;bottom=0;right=0;editable=1;overflow=hidden;" vertex="1" parent="jP5sKusEUZS4UX5iM_x4-146">
          <mxGeometry width="30" height="30" as="geometry" />
        </mxCell>
        <mxCell id="jP5sKusEUZS4UX5iM_x4-148" value="PostalCode" style="shape=partialRectangle;connectable=0;fillColor=none;top=0;left=0;bottom=0;right=0;align=left;spacingLeft=6;overflow=hidden;" vertex="1" parent="jP5sKusEUZS4UX5iM_x4-146">
          <mxGeometry x="30" width="150" height="30" as="geometry" />
        </mxCell>
        <mxCell id="jP5sKusEUZS4UX5iM_x4-91" value="" style="shape=partialRectangle;collapsible=0;dropTarget=0;pointerEvents=0;fillColor=none;top=0;left=0;bottom=0;right=0;points=[[0,0.5],[1,0.5]];portConstraint=eastwest;" vertex="1" parent="jP5sKusEUZS4UX5iM_x4-78">
          <mxGeometry y="180" width="180" height="30" as="geometry" />
        </mxCell>
        <mxCell id="jP5sKusEUZS4UX5iM_x4-92" value="" style="shape=partialRectangle;connectable=0;fillColor=none;top=0;left=0;bottom=0;right=0;editable=1;overflow=hidden;" vertex="1" parent="jP5sKusEUZS4UX5iM_x4-91">
          <mxGeometry width="30" height="30" as="geometry" />
        </mxCell>
        <mxCell id="jP5sKusEUZS4UX5iM_x4-93" value="Phone" style="shape=partialRectangle;connectable=0;fillColor=none;top=0;left=0;bottom=0;right=0;align=left;spacingLeft=6;overflow=hidden;" vertex="1" parent="jP5sKusEUZS4UX5iM_x4-91">
          <mxGeometry x="30" width="150" height="30" as="geometry" />
        </mxCell>
        <mxCell id="jP5sKusEUZS4UX5iM_x4-94" value="" style="shape=partialRectangle;collapsible=0;dropTarget=0;pointerEvents=0;fillColor=none;top=0;left=0;bottom=0;right=0;points=[[0,0.5],[1,0.5]];portConstraint=eastwest;" vertex="1" parent="jP5sKusEUZS4UX5iM_x4-78">
          <mxGeometry y="210" width="180" height="30" as="geometry" />
        </mxCell>
        <mxCell id="jP5sKusEUZS4UX5iM_x4-95" value="" style="shape=partialRectangle;connectable=0;fillColor=none;top=0;left=0;bottom=0;right=0;editable=1;overflow=hidden;" vertex="1" parent="jP5sKusEUZS4UX5iM_x4-94">
          <mxGeometry width="30" height="30" as="geometry" />
        </mxCell>
        <mxCell id="jP5sKusEUZS4UX5iM_x4-96" value="Fax" style="shape=partialRectangle;connectable=0;fillColor=none;top=0;left=0;bottom=0;right=0;align=left;spacingLeft=6;overflow=hidden;" vertex="1" parent="jP5sKusEUZS4UX5iM_x4-94">
          <mxGeometry x="30" width="150" height="30" as="geometry" />
        </mxCell>
        <mxCell id="jP5sKusEUZS4UX5iM_x4-97" value="" style="shape=partialRectangle;collapsible=0;dropTarget=0;pointerEvents=0;fillColor=none;top=0;left=0;bottom=0;right=0;points=[[0,0.5],[1,0.5]];portConstraint=eastwest;" vertex="1" parent="jP5sKusEUZS4UX5iM_x4-78">
          <mxGeometry y="240" width="180" height="30" as="geometry" />
        </mxCell>
        <mxCell id="jP5sKusEUZS4UX5iM_x4-98" value="" style="shape=partialRectangle;connectable=0;fillColor=none;top=0;left=0;bottom=0;right=0;editable=1;overflow=hidden;" vertex="1" parent="jP5sKusEUZS4UX5iM_x4-97">
          <mxGeometry width="30" height="30" as="geometry" />
        </mxCell>
        <mxCell id="jP5sKusEUZS4UX5iM_x4-99" value="Email" style="shape=partialRectangle;connectable=0;fillColor=none;top=0;left=0;bottom=0;right=0;align=left;spacingLeft=6;overflow=hidden;" vertex="1" parent="jP5sKusEUZS4UX5iM_x4-97">
          <mxGeometry x="30" width="150" height="30" as="geometry" />
        </mxCell>
        <mxCell id="jP5sKusEUZS4UX5iM_x4-100" value="" style="shape=partialRectangle;collapsible=0;dropTarget=0;pointerEvents=0;fillColor=none;top=0;left=0;bottom=0;right=0;points=[[0,0.5],[1,0.5]];portConstraint=eastwest;" vertex="1" parent="jP5sKusEUZS4UX5iM_x4-78">
          <mxGeometry y="270" width="180" height="30" as="geometry" />
        </mxCell>
        <mxCell id="jP5sKusEUZS4UX5iM_x4-101" value="" style="shape=partialRectangle;connectable=0;fillColor=none;top=0;left=0;bottom=0;right=0;editable=1;overflow=hidden;" vertex="1" parent="jP5sKusEUZS4UX5iM_x4-100">
          <mxGeometry width="30" height="30" as="geometry" />
        </mxCell>
        <mxCell id="jP5sKusEUZS4UX5iM_x4-102" value="ContactPerson" style="shape=partialRectangle;connectable=0;fillColor=none;top=0;left=0;bottom=0;right=0;align=left;spacingLeft=6;overflow=hidden;" vertex="1" parent="jP5sKusEUZS4UX5iM_x4-100">
          <mxGeometry x="30" width="150" height="30" as="geometry" />
        </mxCell>
        <mxCell id="jP5sKusEUZS4UX5iM_x4-103" value="" style="shape=partialRectangle;collapsible=0;dropTarget=0;pointerEvents=0;fillColor=none;top=0;left=0;bottom=0;right=0;points=[[0,0.5],[1,0.5]];portConstraint=eastwest;" vertex="1" parent="jP5sKusEUZS4UX5iM_x4-78">
          <mxGeometry y="300" width="180" height="30" as="geometry" />
        </mxCell>
        <mxCell id="jP5sKusEUZS4UX5iM_x4-104" value="" style="shape=partialRectangle;connectable=0;fillColor=none;top=0;left=0;bottom=0;right=0;editable=1;overflow=hidden;" vertex="1" parent="jP5sKusEUZS4UX5iM_x4-103">
          <mxGeometry width="30" height="30" as="geometry" />
        </mxCell>
        <mxCell id="jP5sKusEUZS4UX5iM_x4-105" value="ContactPersonPhone" style="shape=partialRectangle;connectable=0;fillColor=none;top=0;left=0;bottom=0;right=0;align=left;spacingLeft=6;overflow=hidden;" vertex="1" parent="jP5sKusEUZS4UX5iM_x4-103">
          <mxGeometry x="30" width="150" height="30" as="geometry" />
        </mxCell>
        <mxCell id="jP5sKusEUZS4UX5iM_x4-106" value="" style="shape=partialRectangle;collapsible=0;dropTarget=0;pointerEvents=0;fillColor=none;top=0;left=0;bottom=0;right=0;points=[[0,0.5],[1,0.5]];portConstraint=eastwest;" vertex="1" parent="jP5sKusEUZS4UX5iM_x4-78">
          <mxGeometry y="330" width="180" height="30" as="geometry" />
        </mxCell>
        <mxCell id="jP5sKusEUZS4UX5iM_x4-107" value="" style="shape=partialRectangle;connectable=0;fillColor=none;top=0;left=0;bottom=0;right=0;editable=1;overflow=hidden;" vertex="1" parent="jP5sKusEUZS4UX5iM_x4-106">
          <mxGeometry width="30" height="30" as="geometry" />
        </mxCell>
        <mxCell id="jP5sKusEUZS4UX5iM_x4-108" value="isBlacklist" style="shape=partialRectangle;connectable=0;fillColor=none;top=0;left=0;bottom=0;right=0;align=left;spacingLeft=6;overflow=hidden;" vertex="1" parent="jP5sKusEUZS4UX5iM_x4-106">
          <mxGeometry x="30" width="150" height="30" as="geometry" />
        </mxCell>
        <mxCell id="jP5sKusEUZS4UX5iM_x4-142" value="" style="shape=partialRectangle;collapsible=0;dropTarget=0;pointerEvents=0;fillColor=none;top=0;left=0;bottom=0;right=0;points=[[0,0.5],[1,0.5]];portConstraint=eastwest;" vertex="1" parent="jP5sKusEUZS4UX5iM_x4-78">
          <mxGeometry y="360" width="180" height="30" as="geometry" />
        </mxCell>
        <mxCell id="jP5sKusEUZS4UX5iM_x4-143" value="" style="shape=partialRectangle;connectable=0;fillColor=none;top=0;left=0;bottom=0;right=0;editable=1;overflow=hidden;" vertex="1" parent="jP5sKusEUZS4UX5iM_x4-142">
          <mxGeometry width="30" height="30" as="geometry" />
        </mxCell>
        <mxCell id="jP5sKusEUZS4UX5iM_x4-144" value="BlacklistReason" style="shape=partialRectangle;connectable=0;fillColor=none;top=0;left=0;bottom=0;right=0;align=left;spacingLeft=6;overflow=hidden;" vertex="1" parent="jP5sKusEUZS4UX5iM_x4-142">
          <mxGeometry x="30" width="150" height="30" as="geometry" />
        </mxCell>
        <mxCell id="jP5sKusEUZS4UX5iM_x4-162" value="" style="shape=partialRectangle;collapsible=0;dropTarget=0;pointerEvents=0;fillColor=none;top=0;left=0;bottom=0;right=0;points=[[0,0.5],[1,0.5]];portConstraint=eastwest;" vertex="1" parent="jP5sKusEUZS4UX5iM_x4-78">
          <mxGeometry y="390" width="180" height="30" as="geometry" />
        </mxCell>
        <mxCell id="jP5sKusEUZS4UX5iM_x4-163" value="" style="shape=partialRectangle;connectable=0;fillColor=none;top=0;left=0;bottom=0;right=0;editable=1;overflow=hidden;" vertex="1" parent="jP5sKusEUZS4UX5iM_x4-162">
          <mxGeometry width="30" height="30" as="geometry" />
        </mxCell>
        <mxCell id="jP5sKusEUZS4UX5iM_x4-164" value="timestamp()" style="shape=partialRectangle;connectable=0;fillColor=none;top=0;left=0;bottom=0;right=0;align=left;spacingLeft=6;overflow=hidden;" vertex="1" parent="jP5sKusEUZS4UX5iM_x4-162">
          <mxGeometry x="30" width="150" height="30" as="geometry" />
        </mxCell>
        <mxCell id="jP5sKusEUZS4UX5iM_x4-109" value="BankAccount" style="shape=table;startSize=30;container=1;collapsible=1;childLayout=tableLayout;fixedRows=1;rowLines=0;fontStyle=1;align=center;resizeLast=1;" vertex="1" parent="1">
          <mxGeometry x="647" y="430" width="180" height="220" as="geometry" />
        </mxCell>
        <mxCell id="jP5sKusEUZS4UX5iM_x4-110" value="" style="shape=partialRectangle;collapsible=0;dropTarget=0;pointerEvents=0;fillColor=none;top=0;left=0;bottom=1;right=0;points=[[0,0.5],[1,0.5]];portConstraint=eastwest;" vertex="1" parent="jP5sKusEUZS4UX5iM_x4-109">
          <mxGeometry y="30" width="180" height="30" as="geometry" />
        </mxCell>
        <mxCell id="jP5sKusEUZS4UX5iM_x4-111" value="PK" style="shape=partialRectangle;connectable=0;fillColor=none;top=0;left=0;bottom=0;right=0;fontStyle=1;overflow=hidden;" vertex="1" parent="jP5sKusEUZS4UX5iM_x4-110">
          <mxGeometry width="30" height="30" as="geometry" />
        </mxCell>
        <mxCell id="jP5sKusEUZS4UX5iM_x4-112" value="BankAccountID" style="shape=partialRectangle;connectable=0;fillColor=none;top=0;left=0;bottom=0;right=0;align=left;spacingLeft=6;fontStyle=5;overflow=hidden;" vertex="1" parent="jP5sKusEUZS4UX5iM_x4-110">
          <mxGeometry x="30" width="150" height="30" as="geometry" />
        </mxCell>
        <mxCell id="jP5sKusEUZS4UX5iM_x4-113" value="" style="shape=partialRectangle;collapsible=0;dropTarget=0;pointerEvents=0;fillColor=none;top=0;left=0;bottom=0;right=0;points=[[0,0.5],[1,0.5]];portConstraint=eastwest;" vertex="1" parent="jP5sKusEUZS4UX5iM_x4-109">
          <mxGeometry y="60" width="180" height="30" as="geometry" />
        </mxCell>
        <mxCell id="jP5sKusEUZS4UX5iM_x4-114" value="FK" style="shape=partialRectangle;connectable=0;fillColor=none;top=0;left=0;bottom=0;right=0;editable=1;overflow=hidden;" vertex="1" parent="jP5sKusEUZS4UX5iM_x4-113">
          <mxGeometry width="30" height="30" as="geometry" />
        </mxCell>
        <mxCell id="jP5sKusEUZS4UX5iM_x4-115" value="SupplierID" style="shape=partialRectangle;connectable=0;fillColor=none;top=0;left=0;bottom=0;right=0;align=left;spacingLeft=6;overflow=hidden;" vertex="1" parent="jP5sKusEUZS4UX5iM_x4-113">
          <mxGeometry x="30" width="150" height="30" as="geometry" />
        </mxCell>
        <mxCell id="jP5sKusEUZS4UX5iM_x4-135" value="" style="shape=partialRectangle;collapsible=0;dropTarget=0;pointerEvents=0;fillColor=none;top=0;left=0;bottom=0;right=0;points=[[0,0.5],[1,0.5]];portConstraint=eastwest;" vertex="1" parent="jP5sKusEUZS4UX5iM_x4-109">
          <mxGeometry y="90" width="180" height="30" as="geometry" />
        </mxCell>
        <mxCell id="jP5sKusEUZS4UX5iM_x4-136" value="FK" style="shape=partialRectangle;connectable=0;fillColor=none;top=0;left=0;bottom=0;right=0;editable=1;overflow=hidden;" vertex="1" parent="jP5sKusEUZS4UX5iM_x4-135">
          <mxGeometry width="30" height="30" as="geometry" />
        </mxCell>
        <mxCell id="jP5sKusEUZS4UX5iM_x4-137" value="BankID" style="shape=partialRectangle;connectable=0;fillColor=none;top=0;left=0;bottom=0;right=0;align=left;spacingLeft=6;overflow=hidden;" vertex="1" parent="jP5sKusEUZS4UX5iM_x4-135">
          <mxGeometry x="30" width="150" height="30" as="geometry" />
        </mxCell>
        <mxCell id="jP5sKusEUZS4UX5iM_x4-116" value="" style="shape=partialRectangle;collapsible=0;dropTarget=0;pointerEvents=0;fillColor=none;top=0;left=0;bottom=0;right=0;points=[[0,0.5],[1,0.5]];portConstraint=eastwest;" vertex="1" parent="jP5sKusEUZS4UX5iM_x4-109">
          <mxGeometry y="120" width="180" height="30" as="geometry" />
        </mxCell>
        <mxCell id="jP5sKusEUZS4UX5iM_x4-117" value="" style="shape=partialRectangle;connectable=0;fillColor=none;top=0;left=0;bottom=0;right=0;editable=1;overflow=hidden;" vertex="1" parent="jP5sKusEUZS4UX5iM_x4-116">
          <mxGeometry width="30" height="30" as="geometry" />
        </mxCell>
        <mxCell id="jP5sKusEUZS4UX5iM_x4-118" value="AccountNumber" style="shape=partialRectangle;connectable=0;fillColor=none;top=0;left=0;bottom=0;right=0;align=left;spacingLeft=6;overflow=hidden;" vertex="1" parent="jP5sKusEUZS4UX5iM_x4-116">
          <mxGeometry x="30" width="150" height="30" as="geometry" />
        </mxCell>
        <mxCell id="jP5sKusEUZS4UX5iM_x4-119" value="" style="shape=partialRectangle;collapsible=0;dropTarget=0;pointerEvents=0;fillColor=none;top=0;left=0;bottom=0;right=0;points=[[0,0.5],[1,0.5]];portConstraint=eastwest;" vertex="1" parent="jP5sKusEUZS4UX5iM_x4-109">
          <mxGeometry y="150" width="180" height="30" as="geometry" />
        </mxCell>
        <mxCell id="jP5sKusEUZS4UX5iM_x4-120" value="" style="shape=partialRectangle;connectable=0;fillColor=none;top=0;left=0;bottom=0;right=0;editable=1;overflow=hidden;" vertex="1" parent="jP5sKusEUZS4UX5iM_x4-119">
          <mxGeometry width="30" height="30" as="geometry" />
        </mxCell>
        <mxCell id="jP5sKusEUZS4UX5iM_x4-121" value="AccountName" style="shape=partialRectangle;connectable=0;fillColor=none;top=0;left=0;bottom=0;right=0;align=left;spacingLeft=6;overflow=hidden;" vertex="1" parent="jP5sKusEUZS4UX5iM_x4-119">
          <mxGeometry x="30" width="150" height="30" as="geometry" />
        </mxCell>
        <mxCell id="jP5sKusEUZS4UX5iM_x4-191" value="" style="shape=partialRectangle;collapsible=0;dropTarget=0;pointerEvents=0;fillColor=none;top=0;left=0;bottom=0;right=0;points=[[0,0.5],[1,0.5]];portConstraint=eastwest;" vertex="1" parent="jP5sKusEUZS4UX5iM_x4-109">
          <mxGeometry y="180" width="180" height="30" as="geometry" />
        </mxCell>
        <mxCell id="jP5sKusEUZS4UX5iM_x4-192" value="" style="shape=partialRectangle;connectable=0;fillColor=none;top=0;left=0;bottom=0;right=0;editable=1;overflow=hidden;" vertex="1" parent="jP5sKusEUZS4UX5iM_x4-191">
          <mxGeometry width="30" height="30" as="geometry" />
        </mxCell>
        <mxCell id="jP5sKusEUZS4UX5iM_x4-193" value="timestamp()" style="shape=partialRectangle;connectable=0;fillColor=none;top=0;left=0;bottom=0;right=0;align=left;spacingLeft=6;overflow=hidden;" vertex="1" parent="jP5sKusEUZS4UX5iM_x4-191">
          <mxGeometry x="30" width="150" height="30" as="geometry" />
        </mxCell>
        <mxCell id="jP5sKusEUZS4UX5iM_x4-125" value="Bank" style="shape=table;startSize=30;container=1;collapsible=1;childLayout=tableLayout;fixedRows=1;rowLines=0;fontStyle=1;align=center;resizeLast=1;" vertex="1" parent="1">
          <mxGeometry x="10" y="470" width="180" height="160" as="geometry">
            <mxRectangle x="130" y="610" width="60" height="30" as="alternateBounds" />
          </mxGeometry>
        </mxCell>
        <mxCell id="jP5sKusEUZS4UX5iM_x4-126" value="" style="shape=partialRectangle;collapsible=0;dropTarget=0;pointerEvents=0;fillColor=none;top=0;left=0;bottom=1;right=0;points=[[0,0.5],[1,0.5]];portConstraint=eastwest;" vertex="1" parent="jP5sKusEUZS4UX5iM_x4-125">
          <mxGeometry y="30" width="180" height="30" as="geometry" />
        </mxCell>
        <mxCell id="jP5sKusEUZS4UX5iM_x4-127" value="PK" style="shape=partialRectangle;connectable=0;fillColor=none;top=0;left=0;bottom=0;right=0;fontStyle=1;overflow=hidden;" vertex="1" parent="jP5sKusEUZS4UX5iM_x4-126">
          <mxGeometry width="30" height="30" as="geometry" />
        </mxCell>
        <mxCell id="jP5sKusEUZS4UX5iM_x4-128" value="BankID" style="shape=partialRectangle;connectable=0;fillColor=none;top=0;left=0;bottom=0;right=0;align=left;spacingLeft=6;fontStyle=5;overflow=hidden;" vertex="1" parent="jP5sKusEUZS4UX5iM_x4-126">
          <mxGeometry x="30" width="150" height="30" as="geometry" />
        </mxCell>
        <mxCell id="jP5sKusEUZS4UX5iM_x4-129" value="" style="shape=partialRectangle;collapsible=0;dropTarget=0;pointerEvents=0;fillColor=none;top=0;left=0;bottom=0;right=0;points=[[0,0.5],[1,0.5]];portConstraint=eastwest;" vertex="1" parent="jP5sKusEUZS4UX5iM_x4-125">
          <mxGeometry y="60" width="180" height="30" as="geometry" />
        </mxCell>
        <mxCell id="jP5sKusEUZS4UX5iM_x4-130" value="" style="shape=partialRectangle;connectable=0;fillColor=none;top=0;left=0;bottom=0;right=0;editable=1;overflow=hidden;" vertex="1" parent="jP5sKusEUZS4UX5iM_x4-129">
          <mxGeometry width="30" height="30" as="geometry" />
        </mxCell>
        <mxCell id="jP5sKusEUZS4UX5iM_x4-131" value="Bank" style="shape=partialRectangle;connectable=0;fillColor=none;top=0;left=0;bottom=0;right=0;align=left;spacingLeft=6;overflow=hidden;" vertex="1" parent="jP5sKusEUZS4UX5iM_x4-129">
          <mxGeometry x="30" width="150" height="30" as="geometry" />
        </mxCell>
        <mxCell id="jP5sKusEUZS4UX5iM_x4-132" value="" style="shape=partialRectangle;collapsible=0;dropTarget=0;pointerEvents=0;fillColor=none;top=0;left=0;bottom=0;right=0;points=[[0,0.5],[1,0.5]];portConstraint=eastwest;" vertex="1" parent="jP5sKusEUZS4UX5iM_x4-125">
          <mxGeometry y="90" width="180" height="30" as="geometry" />
        </mxCell>
        <mxCell id="jP5sKusEUZS4UX5iM_x4-133" value="" style="shape=partialRectangle;connectable=0;fillColor=none;top=0;left=0;bottom=0;right=0;editable=1;overflow=hidden;" vertex="1" parent="jP5sKusEUZS4UX5iM_x4-132">
          <mxGeometry width="30" height="30" as="geometry" />
        </mxCell>
        <mxCell id="jP5sKusEUZS4UX5iM_x4-134" value="CodeBank" style="shape=partialRectangle;connectable=0;fillColor=none;top=0;left=0;bottom=0;right=0;align=left;spacingLeft=6;overflow=hidden;" vertex="1" parent="jP5sKusEUZS4UX5iM_x4-132">
          <mxGeometry x="30" width="150" height="30" as="geometry" />
        </mxCell>
        <mxCell id="jP5sKusEUZS4UX5iM_x4-188" value="" style="shape=partialRectangle;collapsible=0;dropTarget=0;pointerEvents=0;fillColor=none;top=0;left=0;bottom=0;right=0;points=[[0,0.5],[1,0.5]];portConstraint=eastwest;" vertex="1" parent="jP5sKusEUZS4UX5iM_x4-125">
          <mxGeometry y="120" width="180" height="30" as="geometry" />
        </mxCell>
        <mxCell id="jP5sKusEUZS4UX5iM_x4-189" value="" style="shape=partialRectangle;connectable=0;fillColor=none;top=0;left=0;bottom=0;right=0;editable=1;overflow=hidden;" vertex="1" parent="jP5sKusEUZS4UX5iM_x4-188">
          <mxGeometry width="30" height="30" as="geometry" />
        </mxCell>
        <mxCell id="jP5sKusEUZS4UX5iM_x4-190" value="timestamp()" style="shape=partialRectangle;connectable=0;fillColor=none;top=0;left=0;bottom=0;right=0;align=left;spacingLeft=6;overflow=hidden;" vertex="1" parent="jP5sKusEUZS4UX5iM_x4-188">
          <mxGeometry x="30" width="150" height="30" as="geometry" />
        </mxCell>
        <mxCell id="jP5sKusEUZS4UX5iM_x4-149" value="BrandSupplier" style="shape=table;startSize=30;container=1;collapsible=1;childLayout=tableLayout;fixedRows=1;rowLines=0;fontStyle=1;align=center;resizeLast=1;" vertex="1" parent="1">
          <mxGeometry x="310" y="690" width="180" height="160" as="geometry" />
        </mxCell>
        <mxCell id="jP5sKusEUZS4UX5iM_x4-150" value="" style="shape=partialRectangle;collapsible=0;dropTarget=0;pointerEvents=0;fillColor=none;top=0;left=0;bottom=1;right=0;points=[[0,0.5],[1,0.5]];portConstraint=eastwest;" vertex="1" parent="jP5sKusEUZS4UX5iM_x4-149">
          <mxGeometry y="30" width="180" height="30" as="geometry" />
        </mxCell>
        <mxCell id="jP5sKusEUZS4UX5iM_x4-151" value="PK" style="shape=partialRectangle;connectable=0;fillColor=none;top=0;left=0;bottom=0;right=0;fontStyle=1;overflow=hidden;" vertex="1" parent="jP5sKusEUZS4UX5iM_x4-150">
          <mxGeometry width="30" height="30" as="geometry" />
        </mxCell>
        <mxCell id="jP5sKusEUZS4UX5iM_x4-152" value="BrandSupplierID" style="shape=partialRectangle;connectable=0;fillColor=none;top=0;left=0;bottom=0;right=0;align=left;spacingLeft=6;fontStyle=5;overflow=hidden;" vertex="1" parent="jP5sKusEUZS4UX5iM_x4-150">
          <mxGeometry x="30" width="150" height="30" as="geometry" />
        </mxCell>
        <mxCell id="jP5sKusEUZS4UX5iM_x4-153" value="" style="shape=partialRectangle;collapsible=0;dropTarget=0;pointerEvents=0;fillColor=none;top=0;left=0;bottom=0;right=0;points=[[0,0.5],[1,0.5]];portConstraint=eastwest;" vertex="1" parent="jP5sKusEUZS4UX5iM_x4-149">
          <mxGeometry y="60" width="180" height="30" as="geometry" />
        </mxCell>
        <mxCell id="jP5sKusEUZS4UX5iM_x4-154" value="FK" style="shape=partialRectangle;connectable=0;fillColor=none;top=0;left=0;bottom=0;right=0;editable=1;overflow=hidden;" vertex="1" parent="jP5sKusEUZS4UX5iM_x4-153">
          <mxGeometry width="30" height="30" as="geometry" />
        </mxCell>
        <mxCell id="jP5sKusEUZS4UX5iM_x4-155" value="SupplierID" style="shape=partialRectangle;connectable=0;fillColor=none;top=0;left=0;bottom=0;right=0;align=left;spacingLeft=6;overflow=hidden;" vertex="1" parent="jP5sKusEUZS4UX5iM_x4-153">
          <mxGeometry x="30" width="150" height="30" as="geometry" />
        </mxCell>
        <mxCell id="jP5sKusEUZS4UX5iM_x4-156" value="" style="shape=partialRectangle;collapsible=0;dropTarget=0;pointerEvents=0;fillColor=none;top=0;left=0;bottom=0;right=0;points=[[0,0.5],[1,0.5]];portConstraint=eastwest;" vertex="1" parent="jP5sKusEUZS4UX5iM_x4-149">
          <mxGeometry y="90" width="180" height="30" as="geometry" />
        </mxCell>
        <mxCell id="jP5sKusEUZS4UX5iM_x4-157" value="FK" style="shape=partialRectangle;connectable=0;fillColor=none;top=0;left=0;bottom=0;right=0;editable=1;overflow=hidden;" vertex="1" parent="jP5sKusEUZS4UX5iM_x4-156">
          <mxGeometry width="30" height="30" as="geometry" />
        </mxCell>
        <mxCell id="jP5sKusEUZS4UX5iM_x4-158" value="BrandID" style="shape=partialRectangle;connectable=0;fillColor=none;top=0;left=0;bottom=0;right=0;align=left;spacingLeft=6;overflow=hidden;" vertex="1" parent="jP5sKusEUZS4UX5iM_x4-156">
          <mxGeometry x="30" width="150" height="30" as="geometry" />
        </mxCell>
        <mxCell id="jP5sKusEUZS4UX5iM_x4-159" value="" style="shape=partialRectangle;collapsible=0;dropTarget=0;pointerEvents=0;fillColor=none;top=0;left=0;bottom=0;right=0;points=[[0,0.5],[1,0.5]];portConstraint=eastwest;" vertex="1" parent="jP5sKusEUZS4UX5iM_x4-149">
          <mxGeometry y="120" width="180" height="30" as="geometry" />
        </mxCell>
        <mxCell id="jP5sKusEUZS4UX5iM_x4-160" value="" style="shape=partialRectangle;connectable=0;fillColor=none;top=0;left=0;bottom=0;right=0;editable=1;overflow=hidden;" vertex="1" parent="jP5sKusEUZS4UX5iM_x4-159">
          <mxGeometry width="30" height="30" as="geometry" />
        </mxCell>
        <mxCell id="jP5sKusEUZS4UX5iM_x4-161" value="timestamp()" style="shape=partialRectangle;connectable=0;fillColor=none;top=0;left=0;bottom=0;right=0;align=left;spacingLeft=6;overflow=hidden;" vertex="1" parent="jP5sKusEUZS4UX5iM_x4-159">
          <mxGeometry x="30" width="150" height="30" as="geometry" />
        </mxCell>
        <mxCell id="jP5sKusEUZS4UX5iM_x4-165" value="Unit" style="shape=table;startSize=30;container=1;collapsible=1;childLayout=tableLayout;fixedRows=1;rowLines=0;fontStyle=1;align=center;resizeLast=1;" vertex="1" parent="1">
          <mxGeometry x="610" y="730" width="180" height="130" as="geometry" />
        </mxCell>
        <mxCell id="jP5sKusEUZS4UX5iM_x4-166" value="" style="shape=partialRectangle;collapsible=0;dropTarget=0;pointerEvents=0;fillColor=none;top=0;left=0;bottom=1;right=0;points=[[0,0.5],[1,0.5]];portConstraint=eastwest;" vertex="1" parent="jP5sKusEUZS4UX5iM_x4-165">
          <mxGeometry y="30" width="180" height="30" as="geometry" />
        </mxCell>
        <mxCell id="jP5sKusEUZS4UX5iM_x4-167" value="PK" style="shape=partialRectangle;connectable=0;fillColor=none;top=0;left=0;bottom=0;right=0;fontStyle=1;overflow=hidden;" vertex="1" parent="jP5sKusEUZS4UX5iM_x4-166">
          <mxGeometry width="30" height="30" as="geometry" />
        </mxCell>
        <mxCell id="jP5sKusEUZS4UX5iM_x4-168" value="UnitID" style="shape=partialRectangle;connectable=0;fillColor=none;top=0;left=0;bottom=0;right=0;align=left;spacingLeft=6;fontStyle=5;overflow=hidden;" vertex="1" parent="jP5sKusEUZS4UX5iM_x4-166">
          <mxGeometry x="30" width="150" height="30" as="geometry" />
        </mxCell>
        <mxCell id="jP5sKusEUZS4UX5iM_x4-169" value="" style="shape=partialRectangle;collapsible=0;dropTarget=0;pointerEvents=0;fillColor=none;top=0;left=0;bottom=0;right=0;points=[[0,0.5],[1,0.5]];portConstraint=eastwest;" vertex="1" parent="jP5sKusEUZS4UX5iM_x4-165">
          <mxGeometry y="60" width="180" height="30" as="geometry" />
        </mxCell>
        <mxCell id="jP5sKusEUZS4UX5iM_x4-170" value="" style="shape=partialRectangle;connectable=0;fillColor=none;top=0;left=0;bottom=0;right=0;editable=1;overflow=hidden;" vertex="1" parent="jP5sKusEUZS4UX5iM_x4-169">
          <mxGeometry width="30" height="30" as="geometry" />
        </mxCell>
        <mxCell id="jP5sKusEUZS4UX5iM_x4-171" value="Unit" style="shape=partialRectangle;connectable=0;fillColor=none;top=0;left=0;bottom=0;right=0;align=left;spacingLeft=6;overflow=hidden;" vertex="1" parent="jP5sKusEUZS4UX5iM_x4-169">
          <mxGeometry x="30" width="150" height="30" as="geometry" />
        </mxCell>
        <mxCell id="jP5sKusEUZS4UX5iM_x4-185" value="" style="shape=partialRectangle;collapsible=0;dropTarget=0;pointerEvents=0;fillColor=none;top=0;left=0;bottom=0;right=0;points=[[0,0.5],[1,0.5]];portConstraint=eastwest;" vertex="1" parent="jP5sKusEUZS4UX5iM_x4-165">
          <mxGeometry y="90" width="180" height="30" as="geometry" />
        </mxCell>
        <mxCell id="jP5sKusEUZS4UX5iM_x4-186" value="" style="shape=partialRectangle;connectable=0;fillColor=none;top=0;left=0;bottom=0;right=0;editable=1;overflow=hidden;" vertex="1" parent="jP5sKusEUZS4UX5iM_x4-185">
          <mxGeometry width="30" height="30" as="geometry" />
        </mxCell>
        <mxCell id="jP5sKusEUZS4UX5iM_x4-187" value="timestamp()" style="shape=partialRectangle;connectable=0;fillColor=none;top=0;left=0;bottom=0;right=0;align=left;spacingLeft=6;overflow=hidden;" vertex="1" parent="jP5sKusEUZS4UX5iM_x4-185">
          <mxGeometry x="30" width="150" height="30" as="geometry" />
        </mxCell>
        <mxCell id="jP5sKusEUZS4UX5iM_x4-172" value="TypeUnit" style="shape=table;startSize=30;container=1;collapsible=1;childLayout=tableLayout;fixedRows=1;rowLines=0;fontStyle=1;align=center;resizeLast=1;" vertex="1" parent="1">
          <mxGeometry x="310" y="890" width="180" height="160" as="geometry" />
        </mxCell>
        <mxCell id="jP5sKusEUZS4UX5iM_x4-173" value="" style="shape=partialRectangle;collapsible=0;dropTarget=0;pointerEvents=0;fillColor=none;top=0;left=0;bottom=1;right=0;points=[[0,0.5],[1,0.5]];portConstraint=eastwest;" vertex="1" parent="jP5sKusEUZS4UX5iM_x4-172">
          <mxGeometry y="30" width="180" height="30" as="geometry" />
        </mxCell>
        <mxCell id="jP5sKusEUZS4UX5iM_x4-174" value="PK" style="shape=partialRectangle;connectable=0;fillColor=none;top=0;left=0;bottom=0;right=0;fontStyle=1;overflow=hidden;" vertex="1" parent="jP5sKusEUZS4UX5iM_x4-173">
          <mxGeometry width="30" height="30" as="geometry" />
        </mxCell>
        <mxCell id="jP5sKusEUZS4UX5iM_x4-175" value="TypeUnitID" style="shape=partialRectangle;connectable=0;fillColor=none;top=0;left=0;bottom=0;right=0;align=left;spacingLeft=6;fontStyle=5;overflow=hidden;" vertex="1" parent="jP5sKusEUZS4UX5iM_x4-173">
          <mxGeometry x="30" width="150" height="30" as="geometry" />
        </mxCell>
        <mxCell id="jP5sKusEUZS4UX5iM_x4-176" value="" style="shape=partialRectangle;collapsible=0;dropTarget=0;pointerEvents=0;fillColor=none;top=0;left=0;bottom=0;right=0;points=[[0,0.5],[1,0.5]];portConstraint=eastwest;" vertex="1" parent="jP5sKusEUZS4UX5iM_x4-172">
          <mxGeometry y="60" width="180" height="30" as="geometry" />
        </mxCell>
        <mxCell id="jP5sKusEUZS4UX5iM_x4-177" value="FK" style="shape=partialRectangle;connectable=0;fillColor=none;top=0;left=0;bottom=0;right=0;editable=1;overflow=hidden;" vertex="1" parent="jP5sKusEUZS4UX5iM_x4-176">
          <mxGeometry width="30" height="30" as="geometry" />
        </mxCell>
        <mxCell id="jP5sKusEUZS4UX5iM_x4-178" value="TypeID" style="shape=partialRectangle;connectable=0;fillColor=none;top=0;left=0;bottom=0;right=0;align=left;spacingLeft=6;overflow=hidden;" vertex="1" parent="jP5sKusEUZS4UX5iM_x4-176">
          <mxGeometry x="30" width="150" height="30" as="geometry" />
        </mxCell>
        <mxCell id="jP5sKusEUZS4UX5iM_x4-179" value="" style="shape=partialRectangle;collapsible=0;dropTarget=0;pointerEvents=0;fillColor=none;top=0;left=0;bottom=0;right=0;points=[[0,0.5],[1,0.5]];portConstraint=eastwest;" vertex="1" parent="jP5sKusEUZS4UX5iM_x4-172">
          <mxGeometry y="90" width="180" height="30" as="geometry" />
        </mxCell>
        <mxCell id="jP5sKusEUZS4UX5iM_x4-180" value="FK" style="shape=partialRectangle;connectable=0;fillColor=none;top=0;left=0;bottom=0;right=0;editable=1;overflow=hidden;" vertex="1" parent="jP5sKusEUZS4UX5iM_x4-179">
          <mxGeometry width="30" height="30" as="geometry" />
        </mxCell>
        <mxCell id="jP5sKusEUZS4UX5iM_x4-181" value="UnitID" style="shape=partialRectangle;connectable=0;fillColor=none;top=0;left=0;bottom=0;right=0;align=left;spacingLeft=6;overflow=hidden;" vertex="1" parent="jP5sKusEUZS4UX5iM_x4-179">
          <mxGeometry x="30" width="150" height="30" as="geometry" />
        </mxCell>
        <mxCell id="jP5sKusEUZS4UX5iM_x4-182" value="" style="shape=partialRectangle;collapsible=0;dropTarget=0;pointerEvents=0;fillColor=none;top=0;left=0;bottom=0;right=0;points=[[0,0.5],[1,0.5]];portConstraint=eastwest;" vertex="1" parent="jP5sKusEUZS4UX5iM_x4-172">
          <mxGeometry y="120" width="180" height="30" as="geometry" />
        </mxCell>
        <mxCell id="jP5sKusEUZS4UX5iM_x4-183" value="" style="shape=partialRectangle;connectable=0;fillColor=none;top=0;left=0;bottom=0;right=0;editable=1;overflow=hidden;" vertex="1" parent="jP5sKusEUZS4UX5iM_x4-182">
          <mxGeometry width="30" height="30" as="geometry" />
        </mxCell>
        <mxCell id="jP5sKusEUZS4UX5iM_x4-184" value="timestamp()" style="shape=partialRectangle;connectable=0;fillColor=none;top=0;left=0;bottom=0;right=0;align=left;spacingLeft=6;overflow=hidden;" vertex="1" parent="jP5sKusEUZS4UX5iM_x4-182">
          <mxGeometry x="30" width="150" height="30" as="geometry" />
        </mxCell>
      </root>
    </mxGraphModel>
  </diagram>
</mxfile>
